<svg preserveAspectRatio="none" width="100%" height="100%" overflow="visible" style="display: block;" viewBox="0 0 24 24" fill="none" xmlns="http://www.w3.org/2000/svg">
<g id="Icon">
<path id="Vector" d="M11.0156 6H12.9844V8.01562H11.0156V6ZM12 21.9844C6.46875 21.9844 2.01562 17.5312 2.01562 12C2.01562 6.46875 6.46875 2.01562 12 2.01562C17.5312 2.01562 21.9844 6.46875 21.9844 12C21.9844 17.5312 17.5312 21.9844 12 21.9844ZM12 3.98438C7.59375 3.98438 3.98438 7.59375 3.98438 12C3.98438 16.4062 7.59375 20.0156 12 20.0156C16.4062 20.0156 20.0156 16.4062 20.0156 12C20.0156 7.59375 16.4062 3.98438 12 3.98438ZM12 18C9.79688 18 8.01562 16.2188 8.01562 14.0156H9.98438C9.98438 15.0938 10.9219 15.9844 12 15.9844C13.0781 15.9844 14.0156 15.0938 14.0156 14.0156C14.0156 12 11.0156 12.2344 11.0156 9H12.9844C12.9844 11.25 15.9844 11.4844 15.9844 14.0156C15.9844 16.2188 14.2031 18 12 18Z" fill="var(--fill-0, #5F6368)" style="fill:#5F6368;fill:color(display-p3 0.3725 0.3882 0.4078);fill-opacity:1;"/>
</g>
</svg>
